<svg xmlns:dc="http://purl.org/dc/elements/1.1/" xmlns:cc="http://creativecommons.org/ns#" xmlns:rdf="http://www.w3.org/1999/02/22-rdf-syntax-ns#" xmlns:svg="http://www.w3.org/2000/svg" xmlns="http://www.w3.org/2000/svg" xmlns:sodipodi="http://sodipodi.sourceforge.net/DTD/sodipodi-0.dtd" xmlns:inkscape="http://www.inkscape.org/namespaces/inkscape" version="1.1" x="0px" y="0px" viewBox="0 0 100 125"><g transform="translate(0,-952.36218)"><path style="text-indent:0;text-transform:none;direction:ltr;block-progression:tb;baseline-shift:baseline;color:#000000;enable-background:accumulate;" d="m 69.24145,1031.3573 -0.3309,-1.9438 -3.1675,-18.9984 13.9702,-13.51407 1.4183,-1.38845 -1.9857,-0.30083 -19.4305,-2.89257 -8.8171,-17.19346 -0.8983,-1.75868 -0.8983,1.75868 -8.817,17.19346 -19.4306,2.89257 -1.9856,0.30083 1.4183,1.38845 13.9701,13.51407 -3.1675,18.9984 -0.3309,1.9438 1.7728,-0.9025 17.4687,-8.8628 17.4687,8.8628 z m -2.6475,-3.5637 -16.1212,-8.1917 -0.4728,-0.2314 -0.4728,0.2314 -16.1212,8.1917 2.9548,-17.5636 0.071,-0.5091 -0.3546,-0.3471 -12.9301,-12.49597 17.965,-2.68426 0.4964,-0.0694 0.2364,-0.46282 8.1552,-15.89758 8.1552,15.89758 0.2364,0.46282 0.4964,0.0694 17.965,2.68426 -12.9301,12.49597 -0.3546,0.3471 0.071,0.5091 c 0.9847,5.8545 1.9704,11.7095 2.9546,17.5636 z" fill="#000000" fill-opacity="1" stroke="none" marker="none" visibility="visible" display="inline" overflow="visible"/></g><text x="0" y="115" fill="#000000" font-size="5px" font-weight="bold" font-family="'Helvetica Neue', Helvetica, Arial-Unicode, Arial, Sans-serif">Created by Eagle Eye</text><text x="0" y="120" fill="#000000" font-size="5px" font-weight="bold" font-family="'Helvetica Neue', Helvetica, Arial-Unicode, Arial, Sans-serif">from the Noun Project</text></svg>