<?xml version="1.0" standalone="no"?>
<svg
  width="600"
  height="600"
  viewBox="0 0 600 600"
  xmlns="http://www.w3.org/2000/svg"
>
  <g transform="translate(300,300)">
    <path d="M109,-161.4C153.1,-141.2,208.9,-131.1,231.1,-100.3C253.3,-69.5,242,-18.2,219.3,20.5C196.6,59.2,162.5,85.3,137,123.7C111.5,162.2,94.5,213,65.9,218.8C37.4,224.5,-2.7,185.2,-39.1,161.5C-75.4,137.8,-108,129.8,-141.9,111.4C-175.9,93,-211.2,64.2,-211.7,33C-212.2,1.7,-178,-31.9,-158.4,-71.4C-138.9,-110.8,-134,-155.9,-110.1,-185.3C-86.1,-214.7,-43.1,-228.4,-5.3,-220.1C32.4,-211.8,64.9,-181.6,109,-161.4Z" fill="#ff7263" />
  </g>
</svg>
  